<mxfile host="Electron" agent="Mozilla/5.0 (Windows NT 10.0; Win64; x64) AppleWebKit/537.36 (KHTML, like Gecko) draw.io/26.0.16 Chrome/132.0.6834.196 Electron/34.2.0 Safari/537.36" version="26.0.16">
  <diagram name="第 1 页" id="ox2iRF_8laomSmyxS9uO">
    <mxGraphModel dx="450" dy="327" grid="1" gridSize="10" guides="1" tooltips="1" connect="1" arrows="1" fold="1" page="1" pageScale="1" pageWidth="827" pageHeight="1169" math="0" shadow="0">
      <root>
        <mxCell id="0" />
        <mxCell id="1" parent="0" />
        <mxCell id="4mYztZ-CQ0LAVOd074Rc-1" value="&lt;span style=&quot;color: rgba(0, 0, 0, 0); font-family: monospace; font-size: 0px; text-align: start;&quot;&gt;%3CmxGraphModel%3E%3Croot%3E%3CmxCell%20id%3D%220%22%2F%3E%3CmxCell%20id%3D%221%22%20parent%3D%220%22%2F%3E%3CmxCell%20id%3D%222%22%20value%3D%22%22%20style%3D%22endArrow%3Dclassic%3Bhtml%3D1%3Brounded%3D0%3B%22%20edge%3D%221%22%20parent%3D%221%22%3E%3CmxGeometry%20width%3D%2250%22%20height%3D%2250%22%20relative%3D%221%22%20as%3D%22geometry%22%3E%3CmxPoint%20x%3D%22240%22%20y%3D%22188%22%20as%3D%22sourcePoint%22%2F%3E%3CmxPoint%20x%3D%22620%22%20y%3D%22190%22%20as%3D%22targetPoint%22%2F%3E%3C%2FmxGeometry%3E%3C%2FmxCell%3E%3C%2Froot%3E%3C%2FmxGraphModel%3E&lt;/span&gt;" style="text;html=1;align=center;verticalAlign=middle;resizable=0;points=[];autosize=1;strokeColor=none;fillColor=none;" parent="1" vertex="1">
          <mxGeometry x="230" y="198" width="20" height="30" as="geometry" />
        </mxCell>
        <mxCell id="4mYztZ-CQ0LAVOd074Rc-2" value="" style="endArrow=classic;html=1;rounded=0;" parent="1" edge="1">
          <mxGeometry width="50" height="50" relative="1" as="geometry">
            <mxPoint x="240" y="190" as="sourcePoint" />
            <mxPoint x="600" y="190" as="targetPoint" />
          </mxGeometry>
        </mxCell>
        <mxCell id="3h8yZsonHAX2tRKO89fy-1" value="" style="endArrow=classic;html=1;rounded=0;" edge="1" parent="1">
          <mxGeometry width="50" height="50" relative="1" as="geometry">
            <mxPoint x="240" y="220" as="sourcePoint" />
            <mxPoint x="600" y="220" as="targetPoint" />
          </mxGeometry>
        </mxCell>
        <mxCell id="3h8yZsonHAX2tRKO89fy-2" value="" style="endArrow=classic;html=1;rounded=0;" edge="1" parent="1">
          <mxGeometry width="50" height="50" relative="1" as="geometry">
            <mxPoint x="240" y="250" as="sourcePoint" />
            <mxPoint x="600" y="250" as="targetPoint" />
          </mxGeometry>
        </mxCell>
        <mxCell id="3h8yZsonHAX2tRKO89fy-3" value="P&lt;sub&gt;1&lt;/sub&gt;" style="text;html=1;align=center;verticalAlign=middle;resizable=0;points=[];autosize=1;strokeColor=none;fillColor=none;" vertex="1" parent="1">
          <mxGeometry x="208" y="174" width="40" height="30" as="geometry" />
        </mxCell>
        <mxCell id="3h8yZsonHAX2tRKO89fy-4" value="P&lt;span style=&quot;font-size: 10px;&quot;&gt;2&lt;/span&gt;" style="text;html=1;align=center;verticalAlign=middle;resizable=0;points=[];autosize=1;strokeColor=none;fillColor=none;" vertex="1" parent="1">
          <mxGeometry x="207" y="204" width="40" height="30" as="geometry" />
        </mxCell>
        <mxCell id="3h8yZsonHAX2tRKO89fy-5" value="P&lt;span style=&quot;font-size: 10px;&quot;&gt;3&lt;/span&gt;" style="text;html=1;align=center;verticalAlign=middle;resizable=0;points=[];autosize=1;strokeColor=none;fillColor=none;" vertex="1" parent="1">
          <mxGeometry x="207" y="232" width="40" height="30" as="geometry" />
        </mxCell>
        <mxCell id="3h8yZsonHAX2tRKO89fy-6" value="acq(L) &lt;font style=&quot;color: rgb(255, 0, 0);&quot;&gt;w(x)&lt;/font&gt; rel(L)" style="text;html=1;align=center;verticalAlign=middle;resizable=0;points=[];autosize=1;strokeColor=none;fillColor=none;" vertex="1" parent="1">
          <mxGeometry x="240" y="160" width="110" height="30" as="geometry" />
        </mxCell>
        <mxCell id="3h8yZsonHAX2tRKO89fy-7" value="" style="endArrow=classic;html=1;rounded=0;exitX=0.925;exitY=0.999;exitDx=0;exitDy=0;exitPerimeter=0;" edge="1" parent="1" source="3h8yZsonHAX2tRKO89fy-6">
          <mxGeometry width="50" height="50" relative="1" as="geometry">
            <mxPoint x="370" y="330" as="sourcePoint" />
            <mxPoint x="360" y="220" as="targetPoint" />
          </mxGeometry>
        </mxCell>
        <mxCell id="3h8yZsonHAX2tRKO89fy-8" value="x" style="text;html=1;align=center;verticalAlign=middle;resizable=0;points=[];autosize=1;strokeColor=none;fillColor=none;" vertex="1" parent="1">
          <mxGeometry x="343" y="186" width="30" height="30" as="geometry" />
        </mxCell>
        <mxCell id="3h8yZsonHAX2tRKO89fy-9" value="acq(L) &lt;font style=&quot;color: rgb(255, 0, 0);&quot;&gt;w(x)&lt;/font&gt; rel(L)" style="text;html=1;align=center;verticalAlign=middle;resizable=0;points=[];autosize=1;strokeColor=none;fillColor=none;" vertex="1" parent="1">
          <mxGeometry x="359" y="190" width="110" height="30" as="geometry" />
        </mxCell>
        <mxCell id="3h8yZsonHAX2tRKO89fy-10" value="" style="endArrow=classic;html=1;rounded=0;exitX=0.925;exitY=0.999;exitDx=0;exitDy=0;exitPerimeter=0;" edge="1" parent="1">
          <mxGeometry width="50" height="50" relative="1" as="geometry">
            <mxPoint x="460" y="220" as="sourcePoint" />
            <mxPoint x="478" y="250" as="targetPoint" />
          </mxGeometry>
        </mxCell>
        <mxCell id="3h8yZsonHAX2tRKO89fy-11" value="x" style="text;html=1;align=center;verticalAlign=middle;resizable=0;points=[];autosize=1;strokeColor=none;fillColor=none;" vertex="1" parent="1">
          <mxGeometry x="463" y="216" width="30" height="30" as="geometry" />
        </mxCell>
        <mxCell id="3h8yZsonHAX2tRKO89fy-12" value="acq(L) &lt;font style=&quot;color: rgb(255, 0, 0);&quot;&gt;w(x)&lt;/font&gt; rel(L)" style="text;html=1;align=center;verticalAlign=middle;resizable=0;points=[];autosize=1;strokeColor=none;fillColor=none;" vertex="1" parent="1">
          <mxGeometry x="480" y="220" width="110" height="30" as="geometry" />
        </mxCell>
      </root>
    </mxGraphModel>
  </diagram>
</mxfile>
